<svg width="24" height="24" viewBox="0 0 24 24" fill="none" xmlns="http://www.w3.org/2000/svg">
<path fill-rule="evenodd" clip-rule="evenodd" d="M12 1C5.92496 1 1 5.92496 1 12C1 18.075 5.92496 23 12 23C18.075 23 23 18.075 23 12C23 5.92496 18.075 1 12 1ZM11.064 15.1148L11.0569 15.1279C10.8131 15.5549 10.6894 15.7714 10.5181 15.9343C10.3314 16.1127 10.1078 16.2423 9.86162 16.3148C9.63684 16.3767 9.38589 16.3767 8.88283 16.3767H6.748C6.29963 16.3767 6.07719 16.3767 5.9428 16.2899C5.79652 16.1947 5.70732 16.0389 5.69662 15.8653C5.68829 15.7059 5.7989 15.5109 6.02128 15.122L11.2923 5.8322C11.5172 5.43735 11.6301 5.23992 11.7728 5.16737C11.9262 5.08888 12.1106 5.08888 12.2652 5.16737C12.408 5.23992 12.5221 5.43735 12.7457 5.8322L13.8292 7.72323L13.8351 7.73274C14.0777 8.15611 14.2002 8.3702 14.2538 8.59619C14.3132 8.84237 14.3132 9.10165 14.2538 9.34782C14.2002 9.57498 14.0777 9.79142 13.8316 10.2208L11.0628 15.1148H11.064ZM18.1464 16.2875C18.0108 16.3767 17.7849 16.3767 17.3329 16.3767H14.274C13.8232 16.3767 13.5961 16.3767 13.4628 16.2899C13.3166 16.1947 13.2274 16.0354 13.2167 15.8629C13.2084 15.7054 13.3192 15.5137 13.541 15.1303C13.5419 15.1287 13.5428 15.1271 13.5437 15.1255L13.5485 15.116L15.0756 12.4948C15.3004 12.1082 15.4134 11.9167 15.5537 11.843C15.7083 11.7645 15.8891 11.7645 16.0425 11.843C16.1817 11.9144 16.291 12.0975 16.5063 12.4627L16.5242 12.4924L18.056 15.1137C18.0631 15.1267 18.0715 15.1386 18.0786 15.1517C18.2915 15.518 18.3997 15.7047 18.3914 15.8593C18.3831 16.0318 18.2915 16.1912 18.1452 16.2863L18.1464 16.2875Z" fill="#E33D3F"/>
</svg>
