<svg width="24" height="24" viewBox="0 0 24 24" fill="none" xmlns="http://www.w3.org/2000/svg">
<path d="M7.33901 10.085L12 5.424L16.6632 10.087L19.3752 7.37501L12 0L4.6272 7.3728L7.3391 10.0848M0 12L2.7121 9.28752L5.424 11.9994L2.7119 14.7115L0 12ZM7.33901 13.9153L12 18.576L16.6631 13.9131L19.3765 16.6236L19.3752 16.6251L12 24L4.6272 16.6272L4.62336 16.6234L7.3393 13.915M18.576 12.0012L21.2881 9.28906L24 12.001L21.288 14.7131L18.576 12.0012Z" fill="#F3BA2F"/>
<path d="M14.7506 11.9986H14.7517L12 9.24663L9.96601 11.28L9.73234 11.5138L9.25042 11.9958L9.24658 11.9995L9.25042 12.0035L12 14.7534L14.7519 12.0014L14.7532 11.9999L14.7507 11.9986" fill="#F3BA2F"/>
</svg>
