<svg
  xmlns="http://www.w3.org/2000/svg"
  viewBox="0 0 12437.1 11166.94"
  width="124.371mm"
  height="111.669mm"
  fill="currentColor"
  stroke=""
>
  <path
    stroke=""
    fill="currentColor"
    d="M366 10536.39l0 -8044.44 11696.2 0 0 8044.44c0,148.66 -115.96,264.62 -264.62,264.62l-11166.96 0c-148.66,0 -264.62,-115.96 -264.62,-264.62zm0 -9896.78c0,-148.66 115.96,-264.62 264.62,-264.62l11166.96 0c148.66,0 264.62,115.96 264.62,264.62l0 1481.87 -11696.2 0 0 -1481.87zm-370.47 -79.39l0 10055.56c0,276.85 278.86,555.7 555.7,555.7l11325.74 0c276.84,0 555.7,-278.85 555.7,-555.7l0 -10055.56c0,-276.85 -278.86,-555.7 -555.7,-555.7l-11325.74 0c-276.84,0 -555.7,278.85 -555.7,555.7z" />
  <path
    stroke=""
    fill="currentColor"
    d="M5552.55 8419.43l1323.1 0c-42.79,183.66 -187.61,511.68 -298.44,654.2 -193.54,248.88 -399.97,348.85 -652.03,84.58 -137.5,-144.16 -254.68,-387.24 -323.54,-576.17 -13.58,-37.25 -33.66,-128.07 -49.09,-162.61zm1402.49 793.86l192.98 -389.17c46.75,-108.26 141.05,-337.73 151.02,-457.61 381.23,0 835.72,-132.31 1032.02,-132.31 -20.99,78.61 -64.11,107.82 -116.82,174.26 -236.07,297.62 -673.19,577.04 -1028.37,718.13 -79.94,31.75 -163.32,54.31 -230.83,86.7zm-2857.9 -979.09c196.3,0 650.79,132.31 1032.02,132.31 25.04,300.9 321.58,750.53 344,846.78 -267.46,-128.33 -443.86,-135.79 -782.92,-381.4 -156.22,-113.16 -345.26,-261.28 -464.82,-408.43 -47.48,-58.44 -109.54,-119.06 -128.28,-189.26zm4551.46 -476.32c-189.6,44.18 -403.82,93.01 -589.37,125.1 -194.88,33.71 -451.79,86.6 -654.34,86.6 5.41,-243.09 105.85,-545.93 105.85,-1137.87l1349.56 0c0,194.85 -26.77,324.01 -68.34,487.37 -45.48,178.79 -107.54,285.07 -143.36,438.8zm-5080.7 -926.17l1349.56 0c0,560.23 100.91,916.15 105.85,1137.87 -166.09,0 -419.89,-48.17 -563.53,-71.56 -199.83,-32.54 -373.44,-68.26 -549.54,-112.01 -138.81,-34.49 -119.37,-15.83 -170.17,-147.38 -98.69,-255.57 -172.17,-511.18 -172.17,-806.92zm1720.03 0l1852.34 0c-29.4,61.27 -44.85,486.23 -57.52,604.03 -20,185.93 -60.3,410.97 -101.25,586.76 -130.22,0 -268.74,-4.72 -397.8,-0.86 -139.78,4.18 -200.37,27.95 -369.42,27.85 -261.19,-0.15 -477.97,-26.99 -767.58,-26.99 -40.1,-172.15 -76.47,-387.2 -98.35,-563.2 -15.72,-126.45 -29.63,-563.41 -60.42,-627.59zm158.77 -1561.25l767.22 -26.99c261.19,0.15 477.97,26.99 767.58,26.99 40.1,172.15 76.47,387.2 98.35,563.2 15.72,126.45 29.63,563.41 60.42,627.59l-1852.34 0c48.68,-208.96 37.29,-669.35 158.77,-1190.79zm1958.19 52.92c289.78,0 945.99,142.33 1243.71,211.7 64.17,275.42 211.7,466.85 211.7,926.17l-1349.56 0c0,-570.16 -99.14,-894.72 -105.85,-1137.87zm-2487.43 1137.87l-1349.56 0c0,-457.4 145.19,-640.69 211.7,-926.17 263.33,-61.35 988.23,-211.7 1243.71,-211.7 -5.41,243.09 -105.85,545.93 -105.85,1137.87zm1296.64 -2487.43c83.82,0 195.61,72.78 249.06,121.41 36.74,33.42 17.2,15.76 39.86,39.52 167.54,175.65 316.77,499.03 372.63,738.78l-1323.1 0c40.11,-172.16 140.82,-399.21 226.3,-541.1 86.12,-142.95 245.05,-358.61 435.25,-358.61zm2116.96 1084.94c-196.3,0 -650.79,-132.31 -1032.02,-132.31 -9.97,-119.8 -97.03,-328.19 -143.27,-438.89 -65.33,-156.39 -181.58,-325.69 -200.73,-407.89 267.46,128.33 443.86,135.79 782.92,381.4 156.22,113.16 345.26,261.28 464.82,408.43 47.48,58.44 109.54,119.06 128.28,189.26zm-4233.92 0c74.47,-278.9 786.49,-749.9 1145.19,-892.39 79.94,-31.75 163.32,-54.31 230.83,-86.7 -20.95,89.94 -54.71,116.46 -97.08,193.99 -84.13,153.92 -233.59,492.59 -246.92,652.79 -381.23,0 -835.72,132.31 -1032.02,132.31zm-926.17 1402.49c0,648.33 20.18,894.43 291.23,1508.18 53.62,121.42 188.4,340.83 267.92,446.56l316.77 371.23c3.77,3.93 9.2,9.58 13.05,13.42 3.84,3.85 9.49,9.28 13.42,13.05 972.63,931.13 2208.78,1116.65 3445.14,592.6 126.84,-53.77 343.17,-185.16 450.12,-264.36 170.7,-126.41 248.74,-198.64 395.52,-345.41 650.57,-650.58 893.09,-1323.36 893.09,-2282.35 0,-1505.27 -1405.56,-2910.82 -2910.82,-2910.82 -623.77,0 -880.07,37.2 -1455.26,291.23 -308.15,136.08 -506.32,308.14 -734.85,508.87 -550.09,483.16 -985.33,1315.06 -985.33,2057.8z" />
  <path
    stroke=""
    fill="currentColor"
    d="M1874.33 1248.23c0,284.05 423.4,284.05 423.4,0 0,-284.05 -423.4,-284.05 -423.4,0z" />
  <path
    stroke=""
    fill="currentColor"
    d="M1027.55 1248.23c0,284.05 423.39,284.05 423.39,0 0,-284.05 -423.39,-284.05 -423.39,0z" />
  <path
    stroke=""
    fill="currentColor"
    d="M2721.12 1248.23c0,284.05 423.39,284.05 423.39,0 0,-284.05 -423.39,-284.05 -423.39,0z" />
</svg>