<svg xmlns="http://www.w3.org/2000/svg" xmlns:xlink="http://www.w3.org/1999/xlink" width="24" zoomAndPan="magnify" viewBox="0 0 36 36.000001" height="24" preserveAspectRatio="xMidYMid meet" version="1.0"><path fill="#ffffff" d="M 24.277344 29.554688 C 24.03125 29.554688 23.816406 29.460938 23.628906 29.269531 C 23.441406 29.082031 23.34375 28.867188 23.34375 28.625 L 23.34375 25.210938 L 18.472656 25.210938 C 18.230469 25.210938 18.015625 25.117188 17.828125 24.929688 C 17.636719 24.738281 17.542969 24.523438 17.542969 24.28125 L 17.542969 10.726562 L 12.671875 10.726562 L 12.671875 14.136719 C 12.671875 14.382812 12.578125 14.597656 12.390625 14.785156 C 12.199219 14.972656 11.984375 15.070312 11.742188 15.070312 L 5.429688 15.070312 C 5.1875 15.070312 4.972656 14.972656 4.785156 14.785156 C 4.59375 14.597656 4.5 14.382812 4.5 14.136719 L 4.5 6.386719 C 4.5 6.144531 4.59375 5.925781 4.785156 5.738281 C 4.972656 5.550781 5.1875 5.453125 5.429688 5.453125 L 11.742188 5.453125 C 11.984375 5.453125 12.199219 5.550781 12.390625 5.738281 C 12.578125 5.925781 12.671875 6.144531 12.671875 6.386719 L 12.671875 9.796875 L 23.34375 9.796875 L 23.34375 6.386719 C 23.34375 6.144531 23.441406 5.925781 23.628906 5.738281 C 23.816406 5.550781 24.03125 5.453125 24.277344 5.453125 L 30.585938 5.453125 C 30.832031 5.453125 31.046875 5.550781 31.234375 5.738281 C 31.421875 5.925781 31.519531 6.144531 31.519531 6.386719 L 31.519531 14.136719 C 31.519531 14.382812 31.421875 14.597656 31.234375 14.785156 C 31.046875 14.972656 30.832031 15.070312 30.585938 15.070312 L 24.277344 15.070312 C 24.03125 15.070312 23.816406 14.972656 23.628906 14.785156 C 23.441406 14.597656 23.34375 14.382812 23.34375 14.136719 L 23.34375 10.726562 L 18.472656 10.726562 L 18.472656 24.28125 L 23.34375 24.28125 L 23.34375 20.871094 C 23.34375 20.628906 23.441406 20.410156 23.628906 20.222656 C 23.816406 20.035156 24.03125 19.941406 24.277344 19.941406 L 30.585938 19.941406 C 30.832031 19.941406 31.046875 20.035156 31.234375 20.222656 C 31.421875 20.410156 31.519531 20.628906 31.519531 20.871094 L 31.519531 28.625 C 31.519531 28.867188 31.421875 29.082031 31.234375 29.269531 C 31.046875 29.460938 30.832031 29.554688 30.585938 29.554688 Z M 5.429688 6.386719 L 5.429688 14.136719 Z M 24.277344 20.871094 L 24.277344 28.625 Z M 24.277344 6.386719 L 24.277344 14.136719 Z M 24.277344 14.136719 L 30.585938 14.136719 L 30.585938 6.386719 L 24.277344 6.386719 Z M 24.277344 28.625 L 30.585938 28.625 L 30.585938 20.871094 L 24.277344 20.871094 Z M 5.429688 14.136719 L 11.742188 14.136719 L 11.742188 6.386719 L 5.429688 6.386719 Z M 5.429688 14.136719 " fill-opacity="1" fill-rule="nonzero"/></svg>