<svg width="24" height="24" viewBox="0 0 24 24" fill="none" xmlns="http://www.w3.org/2000/svg">
<path d="M19.5714 3H17.4286C16.6396 3 16 3.63959 16 4.42857V6.57143C16 7.36041 16.6396 8 17.4286 8H19.5714C20.3604 8 21 7.36041 21 6.57143V4.42857C21 3.63959 20.3604 3 19.5714 3Z" stroke-linecap="round" stroke-linejoin="round"/>
<path d="M19.5714 16H17.4286C16.6396 16 16 16.6396 16 17.4286V19.5714C16 20.3604 16.6396 21 17.4286 21H19.5714C20.3604 21 21 20.3604 21 19.5714V17.4286C21 16.6396 20.3604 16 19.5714 16Z" stroke-linecap="round" stroke-linejoin="round"/>
<path d="M6.57143 3H4.42857C3.63959 3 3 3.63959 3 4.42857V6.57143C3 7.36041 3.63959 8 4.42857 8H6.57143C7.36041 8 8 7.36041 8 6.57143V4.42857C8 3.63959 7.36041 3 6.57143 3Z" stroke-linecap="round" stroke-linejoin="round"/>
<path d="M6.57143 16H4.42857C3.63959 16 3 16.6396 3 17.4286V19.5714C3 20.3604 3.63959 21 4.42857 21H6.57143C7.36041 21 8 20.3604 8 19.5714V17.4286C8 16.6396 7.36041 16 6.57143 16Z" stroke-linecap="round" stroke-linejoin="round"/>
<path d="M10 5C11.3021 3.66667 12.6979 3.66667 14 5" stroke-linecap="round" stroke-linejoin="round"/>
<path d="M5 14C3.66667 12.6979 3.66667 11.3021 5 10" stroke-linecap="round" stroke-linejoin="round"/>
<path d="M19 10C20.3333 11.3021 20.3333 12.6979 19 14" stroke-linecap="round" stroke-linejoin="round"/>
<path d="M10 19C11.3021 20.3333 12.6979 20.3333 14 19" stroke-linecap="round" stroke-linejoin="round"/>
<path d="M12.0862 12H11.4006C11.0369 12 10.6881 11.8555 10.4309 11.5984C10.1738 11.3412 10.0293 10.9924 10.0293 10.6287C10.0293 10.265 10.1738 9.91621 10.4309 9.65905C10.6881 9.40188 11.0369 9.2574 11.4006 9.2574H14.1432" stroke-linecap="round" stroke-linejoin="round"/>
<path d="M12.0862 12H12.7719C13.1356 12 13.4844 12.1445 13.7416 12.4016C13.9987 12.6588 14.1432 13.0076 14.1432 13.3713C14.1432 13.735 13.9987 14.0838 13.7416 14.341C13.4844 14.5981 13.1356 14.7426 12.7719 14.7426H10.0293" stroke-linecap="round" stroke-linejoin="round"/>
<path d="M12.0859 8.57175V9.2574" stroke-linecap="round" stroke-linejoin="round"/>
<path d="M12.0859 14.7426V15.4283" stroke-linecap="round" stroke-linejoin="round"/>
</svg>
