<svg width="24" height="24" viewBox="0 0 24 24" fill="none" xmlns="http://www.w3.org/2000/svg">
<path d="M11.9998 0C13.0955 1.27208 14.304 2.45344 15.6109 3.53035C14.7401 6.20754 14.2713 9.0519 14.2713 12C14.2713 14.9481 14.7401 17.7925 15.6109 20.4697C14.304 21.5465 13.0955 22.7279 11.9998 24C10.9041 22.7279 9.69553 21.5465 8.38867 20.4697C9.25945 17.7925 9.72829 14.9481 9.72829 12C9.72829 9.0519 9.25945 6.20754 8.38867 3.53035C9.69553 2.45344 10.9041 1.27209 11.9998 0Z" fill="#6851FF"/>
<path d="M5.89098 18.6187C4.50766 17.6996 3.03955 16.8874 1.5 16.1947C1.92706 14.8678 2.1568 13.4593 2.1568 12C2.1568 10.5407 1.92706 9.13224 1.5 7.80534C3.03955 7.11258 4.50765 6.30036 5.89098 5.38131C6.41994 7.50612 6.69984 9.72204 6.69984 12C6.69984 14.278 6.41994 16.4939 5.89098 18.6187Z" fill="#6851FF"/>
<path d="M17.3003 12C17.3003 14.278 17.5802 16.4939 18.1092 18.6187C19.4925 17.6996 20.9606 16.8874 22.5001 16.1947C22.0731 14.8678 21.8433 13.4593 21.8433 12C21.8433 10.5407 22.0731 9.13224 22.5001 7.80534C20.9606 7.11258 19.4925 6.30036 18.1092 5.3813C17.5802 7.50612 17.3003 9.72204 17.3003 12Z" fill="#6851FF"/>
</svg>
