<svg width="24" height="24" viewBox="0 0 24 24" fill="none" xmlns="http://www.w3.org/2000/svg">
<path d="M11.5668 1.20116C12.0904 0.932946 12.8872 0.932946 13.4108 1.20116L18.754 3.93807C19.0694 4.09961 19.2426 4.34032 19.2736 4.58881H19.2787V18.346C19.2718 18.617 19.0969 18.8862 18.754 19.0619L13.4108 21.7988C12.8872 22.0671 12.0904 22.0671 11.5668 21.7988L6.22357 19.0619C5.88209 18.887 5.71821 18.6158 5.7101 18.346C5.70929 18.3194 5.70919 18.2972 5.70996 18.2789L5.70993 4.67717C5.70939 4.66228 5.70934 4.6474 5.70978 4.63258L5.7101 4.58881L5.71249 4.58879C5.73622 4.33758 5.90156 4.10302 6.22357 3.93807L11.5668 1.20116ZM18.4375 12.2639L13.4108 14.8387C12.8872 15.1069 12.0904 15.1069 11.5668 14.8387L6.55101 12.2696V18.3187L11.5668 20.8743C11.85 21.0212 12.144 21.1642 12.4314 21.1824L12.4888 21.1842C12.7883 21.1852 13.0791 21.0377 13.374 20.8981L18.4375 18.2967V12.2639ZM4.84103 18.0469C4.84103 18.5738 4.9042 18.9203 5.02961 19.1645C5.13357 19.3668 5.28954 19.5213 5.57434 19.7095L5.59059 19.7201C5.6531 19.761 5.72195 19.8038 5.80575 19.854L5.90459 19.9128L6.20808 20.0904L5.7728 20.7884L5.43311 20.5894L5.37601 20.5554C5.27779 20.4965 5.19639 20.4461 5.12046 20.3964C4.30878 19.8657 4.00606 19.2872 4.00009 18.0835L4 18.0469H4.84103ZM12.0681 8.57652C12.0293 8.58948 11.9928 8.60446 11.9596 8.62149L6.61635 11.3584C6.61075 11.3613 6.60539 11.3641 6.60031 11.3669L6.59578 11.3695L6.60416 11.3741L6.61635 11.3805L11.9596 14.1175C11.9928 14.1345 12.0293 14.1495 12.0681 14.1624V8.57652ZM12.9094 8.57652V14.1624C12.9483 14.1495 12.9848 14.1345 13.018 14.1175L18.3612 11.3805C18.3668 11.3777 18.3722 11.3748 18.3773 11.372L18.3818 11.3695L18.3734 11.3648L18.3612 11.3584L13.018 8.62149C12.9848 8.60446 12.9483 8.58948 12.9094 8.57652ZM18.4375 5.5647L13.6444 8.01989L18.4375 10.4751V5.5647ZM6.55101 5.57044V10.4693L11.3331 8.01989L6.55101 5.57044ZM13.018 1.92238C12.7402 1.78005 12.2374 1.78005 11.9596 1.92238L6.61635 4.65931C6.61075 4.66218 6.60539 4.66502 6.60031 4.66782L6.59578 4.67037L6.60416 4.67503L6.61635 4.68144L11.9596 7.41836C12.2374 7.56068 12.7402 7.56068 13.018 7.41836L18.3612 4.68144C18.3668 4.67857 18.3722 4.67573 18.3773 4.67291L18.3818 4.67037L18.3734 4.66571L18.3612 4.65931L13.018 1.92238ZM19.2272 2.22252L19.5669 2.42147L19.624 2.45547C19.7222 2.51426 19.8036 2.56478 19.8795 2.61442C20.6912 3.14511 20.9939 3.72371 20.9998 4.92734L21 4.964H20.159C20.159 4.43691 20.0958 4.09047 19.9704 3.8464C19.8664 3.64411 19.7105 3.48951 19.4257 3.3014L19.4094 3.29072C19.3469 3.24985 19.2781 3.20705 19.1942 3.15673L19.0954 3.09803L18.7919 2.92041L19.2272 2.22252Z" fill="#0511F3"/>
</svg>
