<svg width="24" height="24" viewBox="0 0 24 24" fill="none" xmlns="http://www.w3.org/2000/svg">
<path d="M3.61538 19.7693C3.16794 19.7693 2.78686 19.6119 2.47213 19.2971C2.15738 18.9824 2 18.6013 2 18.1538V8.57693C2 8.43461 2.04775 8.31569 2.14325 8.22018C2.23877 8.12466 2.35768 8.0769 2.5 8.0769C2.6423 8.0769 2.76121 8.12466 2.85672 8.22018C2.95224 8.31569 3 8.43461 3 8.57693V18.1538C3 18.3333 3.05769 18.4808 3.17307 18.5962C3.28846 18.7115 3.43589 18.7692 3.61538 18.7692H18.5385C18.6808 18.7692 18.7997 18.817 18.8952 18.9125C18.9907 19.008 19.0385 19.1269 19.0385 19.2692C19.0385 19.4115 18.9907 19.5305 18.8952 19.626C18.7997 19.7215 18.6808 19.7693 18.5385 19.7693H3.61538ZM6.61538 16.7692C6.16794 16.7692 5.78686 16.6119 5.47212 16.2971C5.15737 15.9824 5 15.6013 5 15.1538V4.61537C5 4.16794 5.15737 3.78685 5.47212 3.4721C5.78686 3.15737 6.16794 3 6.61538 3H11.3288C11.5442 3 11.7535 3.04359 11.9567 3.13078C12.1599 3.21794 12.334 3.33397 12.4789 3.47885L13.2308 4.23078H20.3846C20.8321 4.23078 21.2132 4.38814 21.5279 4.70287C21.8426 5.01762 22 5.39872 22 5.84615V15.1538C22 15.6013 21.8426 15.9824 21.5279 16.2971C21.2132 16.6119 20.8321 16.7692 20.3846 16.7692H6.61538ZM6.61538 15.7692H20.3846C20.5641 15.7692 20.7115 15.7115 20.8269 15.5962C20.9423 15.4808 21 15.3333 21 15.1538V5.84615C21 5.66667 20.9423 5.51923 20.8269 5.40385C20.7115 5.28847 20.5641 5.23078 20.3846 5.23078H12.8288L11.7712 4.17307C11.7071 4.10897 11.6365 4.0641 11.5596 4.03845C11.4827 4.01282 11.4058 4 11.3288 4H6.61538C6.43589 4 6.28846 4.05769 6.17308 4.17307C6.05769 4.28846 6 4.43589 6 4.61537V15.1538C6 15.3333 6.05769 15.4808 6.17308 15.5962C6.28846 15.7115 6.43589 15.7692 6.61538 15.7692Z"/>
</svg>
