<svg width="24" height="24" viewBox="0 0 24 24" fill="none" xmlns="http://www.w3.org/2000/svg">
<path d="M13.4159 10.6344C13.4646 10.6833 13.4646 10.7624 13.4157 10.8112C13.3669 10.86 13.2878 10.86 13.239 10.8112C13.1901 10.7624 13.1901 10.6833 13.2388 10.6344C13.2623 10.6109 13.2941 10.5977 13.3274 10.5977C13.3606 10.5977 13.3924 10.6109 13.4159 10.6344" stroke-width="1.5" stroke-linecap="round" stroke-linejoin="round"/>
<path fill-rule="evenodd" clip-rule="evenodd" d="M11.9623 7.83826H14.8015C15.5529 7.83826 16.1621 8.4474 16.1621 9.19882V12.037C16.1616 12.3982 16.0177 12.7444 15.7619 12.9994L12.1604 16.6009C11.6288 17.1321 10.7672 17.1321 10.2356 16.6009L7.39842 13.7647C6.86719 13.2331 6.86719 12.3716 7.39842 11.8399L10.9999 8.23842C11.2549 7.98267 11.6011 7.83872 11.9623 7.83826V7.83826Z" stroke-width="1.5" stroke-linecap="round" stroke-linejoin="round"/>
<path fill-rule="evenodd" clip-rule="evenodd" d="M3.49682 13.4646L4.69732 15.0303L4.95542 16.9771C5.09773 18.0554 5.94363 18.9054 7.02128 19.0529L8.9741 19.313L10.5367 20.5035C11.4019 21.165 12.6028 21.165 13.468 20.5035L15.0326 19.309L16.9814 19.0509C18.0619 18.9074 18.9122 18.0575 19.0563 16.9771L19.3164 15.0243L20.5169 13.4606C21.1773 12.5959 21.1773 11.3961 20.5169 10.5314L19.3164 8.96573L19.0583 7.01892C18.9132 5.93861 18.0621 5.08958 16.9814 4.94706L15.0286 4.68695L13.466 3.49645C12.6008 2.835 11.3999 2.835 10.5347 3.49645L8.97009 4.68695L7.02128 4.94506C5.94155 5.08946 5.0923 5.93911 4.94842 7.01892L4.68831 8.97173L3.49682 10.5354C2.8357 11.3999 2.8357 12.6001 3.49682 13.4646Z" stroke-width="1.5" stroke-linecap="round" stroke-linejoin="round"/>
</svg>
