<svg
  xmlns="http://www.w3.org/2000/svg"
  viewBox="0 0 9925.38 9682.38"
  width="99.2538"
  height="96.8238"
  fill="currentColor"
  stroke=""
>
  <path
    stroke=""
    fill="currentColor"
    d="M815.64 8972.64c0,-280.15 -67.18,-740.74 291,-740.74l2433.86 0c80.28,0 115.63,85.39 155.22,135.78 540.24,687.68 966.07,796.76 1141.08,948.88l-3253.97 0c-401.76,0 -767.19,70.95 -767.19,-343.92zm-423.28 -1455.02c0,-841.6 -61.76,-740.75 1111.11,-740.75 493.82,0 987.65,0.01 1481.48,0.01 87.95,377.54 191.31,746.25 370.37,1084.65l-2460.67 0.35c-243.83,1.57 -502.29,-8.48 -502.29,-344.26zm6084.65 1798.94c-449.59,0 -885.16,-104.07 -1273.99,-260.41 -269.15,-108.21 -486.05,-256.91 -710.66,-426.9 -362.97,-274.7 -650.26,-669.88 -855.06,-1076.16 -594.04,-1178.51 -304.65,-2645.3 597.53,-3547.49 1218.09,-1218.09 3184.84,-1209.09 4412.75,18.69 219.29,219.27 483.29,584.22 611.02,896.91 128.02,313.39 210.11,530.8 253.77,883.8 238.11,1924.82 -1308.02,3511.56 -3035.36,3511.56zm-3544.97 -2936.51l-1322.75 0c-334.78,0 -264.55,-472.3 -264.55,-767.19 0,-138.46 118.19,-291.01 264.55,-291.01l1428.57 0c0,134.38 -105.82,540.35 -105.82,1058.2zm264.55 -1455.02l-2011.7 1.11c-444.62,2.99 -369.25,-274.86 -369.25,-741.85 0,-133.53 42.74,-212.14 125.46,-271.36 125.71,-90 1034.47,-46.11 1223.74,-46.11 555.55,0 1111.11,0.01 1666.67,0.01 -49.17,73.42 -130.27,159.19 -189.15,234.13 -57.56,73.26 -117.78,167.84 -170.08,253.2 -95.9,156.49 -232.11,383.76 -275.69,570.87zm-2751.32 -846.56c0,468.17 -91.03,939.2 344.47,1163.46 81.17,41.8 161.89,43.62 237.54,79.92 -84.68,176.47 -84.68,881.73 0,1058.2 -289.17,0 -506.69,-3.91 -687.44,106.21 -406.18,247.44 -317.85,610.3 -317.85,1137.18 0,278.25 244.27,527.98 476.19,582.01 -89.36,383.56 -52.91,409.97 -52.91,873.01 0,307.93 300.53,608.47 608.46,608.47l5555.55 0c810.48,0 1735.54,-451.55 2295.43,-1011.45 80.23,-80.22 109.71,-133.48 184.71,-212.11 444.69,-466.17 826.74,-1404.31 826.74,-2083.32 0,-673.49 -49.62,-1110.15 -343.82,-1693.22 -288.51,-571.82 -664.91,-1026.7 -1190.47,-1375.66 -368.94,-244.97 -724.13,-408.51 -1179.99,-513.13 -785.85,-180.36 -1589.07,-82.3 -2259.66,248.29 -1022.14,503.88 -252.5,423.67 -1428.17,423.67 -608.47,0 -1216.93,0 -1825.4,0 -303.81,0 -641.6,-32.57 -862.64,63.29 -180.99,78.49 -380.74,303.52 -380.74,545.18z" />
  <path
    stroke=""
    fill="currentColor"
    d="M5101.35 2041.43c-468.58,0 -296.52,-476.19 -79.37,-476.19 371.96,0 298.15,476.19 79.37,476.19zm-3253.97 -423.28c-468.57,0 -296.52,-476.19 -79.36,-476.19 380.03,0 289.79,476.19 79.36,476.19zm6455.02 -740.74c-324.6,0 -312.27,-476.19 -26.45,-476.19 379.3,0 313.18,476.19 26.45,476.19zm-2698.41 661.38c-294.81,-557.15 -1037.34,-377.32 -1137.56,52.91l-1028.07 -162.41c-163.22,-27.47 -321.57,-55.08 -501.91,-80.1 -162.54,-22.55 -351.44,-74.95 -533.51,-74.95 -12.81,-153.83 -135.67,-324.02 -242.03,-392.9 -642.52,-416.13 -1143.85,305.35 -974.9,657.45l-924.69 583.25c-113.93,67.96 -265.79,139.27 -265.79,263.31 0,113.21 81.55,211.64 185.19,211.64 111.84,0 1128.07,-707.22 1190.47,-714.29 60.13,-6.82 129.78,132.28 449.74,132.28 236.29,0 479.92,-186.2 529.1,-370.37 279.88,23.29 1454.93,243.52 1870.89,298.41 241.07,31.8 168.59,-5.09 273.29,176.45 233.48,404.86 803.75,432.26 1068.8,39.71 134.89,-199.79 -31.66,-181.09 407.63,-359.56l1802.66 -816.39c349.53,521.97 1125.73,240.15 1137.57,-291 157.09,0 391.46,-56.46 551.83,-83.09 78.63,-13.06 197.33,-27.35 272.64,-44.82 272.12,-63.11 222.86,-374.74 -4.37,-374.74 -312.98,0 -609.87,108.18 -899.47,132.28 -268.21,-506.89 -1009.4,-364.88 -1137.78,132.06 -68,263.23 -36.18,151.67 -264.61,264.48l-1825.12 820.39z" />
  <path
    stroke=""
    fill="currentColor"
    d="M8540.5 6115.5c0,769.16 -274.15,1373.08 -883.95,1814.46 -1505.91,1090.01 -3759.23,-251.43 -3275.41,-2243.66 435.46,-1793.13 2831.47,-2107.84 3757.79,-730.08 201.2,299.25 401.57,669.88 401.57,1159.28zm-4603.17 0c0,466.53 43.83,769.35 237.67,1164.44 251.59,512.77 690.72,977.14 1232.39,1201.47 928.71,384.63 1855.57,270.92 2610.14,-349.19 236.94,-194.72 246.33,-204.18 447.75,-478.18 100.06,-136.13 158.26,-246.35 234.34,-400.58 438.29,-888.43 235.69,-2087.11 -456.51,-2771.79 -773.01,-764.6 -1925.3,-1016.94 -2859.78,-544.5 -156.29,79.01 -255.99,127.45 -387.74,220.72 -238.31,168.7 -427.04,357.09 -597.42,593.06 -255.84,354.29 -460.84,870.98 -460.84,1364.55z" />
  <path
    stroke=""
    fill="currentColor"
    d="M6238.91 5216.03c-729.28,169.9 -679.43,1198.57 212.07,1190.04 101.64,-0.97 290.58,-7.85 290.58,185.62 0,450.89 -899.47,-17.37 -899.47,396.83 0,234.63 224.42,211.64 396.82,211.64 0,207.53 -11.65,317.46 238.1,317.46 140.43,0 158.73,-191.58 158.73,-343.92 366.54,-30.5 611.68,-457.1 433.83,-830.66 -284.57,-597.69 -936.48,-103.97 -936.48,-545 0,-97.12 40.99,-127.88 79.37,-185.18 180.74,0 560.29,18.48 683.3,-31.01 190.81,-76.76 172.81,-365.82 -74.84,-365.82l-185.18 0c0,-127.19 -0.63,-343.91 -211.64,-343.91 -173.87,0 -185.19,161.07 -185.19,343.91z" />
</svg>