<svg
  xmlns="http://www.w3.org/2000/svg"
  viewBox="0 0 9918.96 9892.5"
  width="99.2063mm"
  height="98.9417mm"
  fill="currentColor"
  stroke=""
>
  <path
    stroke=""
    fill="currentColor"
    d="M8649.33 9522.2c-335.9,0 -1327.01,34.12 -1587.03,-26.46l-0.02 -1322.54c-0.79,-489.99 -248.81,-370.3 1587.05,-370.3 61.91,0 105.8,43.89 105.8,105.8l0 1507.69c0,61.91 -43.89,105.8 -105.8,105.8zm-5713.32 -3782.43c335.62,0 479.01,-9.13 793.24,132.53 468.79,211.32 911.44,696.57 952.5,1190 -274.01,183.49 -334.78,249.62 -698.44,386.04 -723.39,271.37 -1558.3,201.97 -2219.62,-165.93 -131.57,-73.19 -220.51,-143.2 -335.36,-220.1 102.32,-439.21 216.46,-596.67 508.93,-892.94 199.25,-201.84 608.66,-429.59 998.75,-429.59zm4893.35 -79.35c0,-332.94 -33.91,-1301.48 26.46,-1560.59l1666.38 0c50.12,215.14 50.12,1477.69 0,1692.84l-1666.38 0c-13.83,-59.32 -26.46,-60.81 -26.46,-132.25zm-5792.66 -1348.98c0,-540.01 457.42,-1005.12 952.22,-1005.12l132.25 0c488.27,0 952.22,463.95 952.22,952.22l0 132.26c0,510.86 -488.38,952.22 -1005.12,952.22 -578.27,0 -1031.57,-453.3 -1031.57,-1031.58zm-396.76 -26.45c0,305.07 84.32,525.8 193.71,732.06 134.28,253.15 361.42,375.9 441.11,484.67 -137.54,72.77 -244.02,117.21 -376.06,205.86 -463.36,311.06 -571.41,586.41 -787.77,1037.32 -354.17,-237.16 -714.16,-1131.62 -714.16,-1666.38 0,-863.66 216.07,-1429.17 769.74,-2007.57 732.51,-765.23 1887.61,-1016.98 2948.82,-573.63 259.33,108.34 583.61,317.85 785.2,510.88 442.84,424.07 812.79,1134.98 812.79,1752.91 0,565.63 -0.02,765.51 -230.2,1303.92 -55.4,129.6 -139.3,256.03 -214.08,367.84 -61.85,92.47 -186.31,277.24 -269.87,338.48 -34.72,-417.27 -722.28,-1166.76 -1163.82,-1269.63l245.05 -204.61c865.23,-937.41 184.25,-2387.55 -1012.12,-2387.55 -565,0 -1099.72,358.13 -1285.44,804.14 -60.42,145.1 -142.89,383.94 -142.89,571.28zm7009.4 -2195.4c-335.9,0 -1327.01,34.13 -1587.03,-26.45l0 -1666.39c260.03,-60.58 1251.13,-26.45 1587.03,-26.45 61.91,0 105.8,43.88 105.8,105.8l0 1507.68c0,61.91 -43.89,105.8 -105.8,105.8zm-3359.22 740.62c-124.38,-33.21 -838.03,-925.76 -2063.14,-925.76 -622.65,0 -940.4,19.01 -1516.52,308.56 -1037.95,521.67 -1710.44,1560.01 -1710.44,2733.25 0,481.13 125.18,881.84 260.41,1220.82 398.68,999.43 1554.36,1820.99 2649.15,1820.99 806.09,0 1303.47,-126.85 1941.96,-570.84 208.92,-145.28 328.73,-299.09 412.14,-354.93 114.91,76.95 957.25,1123.67 1054.59,1246.6 245.83,310.45 345.78,337.64 349.49,523.37 4.96,247.7 -39.33,665.85 50.73,822.14 52.04,90.31 203.5,238.1 343.82,238.1l1639.93 0c284.4,0 449.65,-240.42 449.65,-529.01l0 -1401.88c0,-288.59 -165.25,-529.01 -449.65,-529.01l-1639.93 0c-131.18,0 -262.44,124.52 -322.68,206.34 -95.39,129.56 -74.09,271.22 -74.09,481.38l-1137.37 -1375.43c309.77,-462.61 581.91,-1052.45 581.91,-1639.93 477.73,0 866.38,26.46 1348.97,26.46l0 661.26c0,206.88 258.27,396.76 476.11,396.76l1507.69 0c252.54,0 476.11,-194.49 476.11,-449.66l0 -1587.03c0,-255.18 -223.57,-449.65 -476.11,-449.65l-1507.69 0c-217.84,0 -476.11,189.88 -476.11,396.75l0 634.81 -687.71 0c-257.29,0 -407.97,-26.45 -661.26,-26.45 -147.14,-631.54 -28.39,-531.13 -378.81,-1234.69 -57.65,-115.76 -178.24,-259.22 -203.11,-352.34l272.83 -335.53c100.79,-125.1 188.82,-225.97 286.05,-348.76 60.57,-76.5 505.65,-642.37 578.48,-691.13 0,197.29 -21.17,363.75 63.1,492.36 59.12,90.23 199.39,221.8 333.66,221.8l1639.93 0c284.4,0 449.65,-240.42 449.65,-529.01l0 -1401.87c0,-147.73 -41.9,-279.83 -112.1,-364.01 -71.05,-85.19 -188.33,-165 -337.55,-165l-1639.93 0c-134.28,0 -274.54,131.56 -333.66,221.79 -113.05,172.55 -46.71,558.23 -61.21,811.66 -8.92,155.93 -208.79,338.46 -354.08,518.79l-641.4 786.92c-76.32,97.73 -358.91,405.16 -381.84,491.04z" />
  <path
    stroke=""
    fill="currentColor"
    d="M7829.36 1190.27c-95.07,-63.67 -253.87,-290.95 -370.31,-290.95 -113.19,0 -211.6,81.53 -211.6,185.15 0,150.98 231.46,322.84 323.77,416.85 178.26,181.57 267.35,224.68 463.79,26.85 130.76,-131.7 515.47,-470.02 527.3,-606.23 8.76,-100.95 -70.89,-207.78 -177.48,-207.78 -141.38,0 -478.89,361.76 -555.47,476.11z" />
  <path
    stroke=""
    fill="currentColor"
    d="M7802.92 8622.88c-277.8,-414.86 -555.47,-330.66 -555.47,-79.36 0,93.72 265.64,331.17 336.77,403.84 178.37,182.17 283.4,176.76 463.97,0.14 129.97,-127.12 243.5,-240.16 370.29,-370.33 320.84,-329.39 -9.13,-430.41 -33.65,-430.41 -185.69,0 -433.37,376.63 -581.91,476.11z" />
  <path
    stroke=""
    fill="currentColor"
    d="M8596.43 4893.35c-101.25,-67.8 -166.7,-180.55 -260.59,-243.4 -78.42,-52.48 -294.88,-95.65 -294.88,190.5 0,79.82 187.3,227.17 244.69,284.32 319.82,318.47 270.51,377.53 727.37,-79.33 92.58,-92.58 324.03,-266.61 324.03,-416.6 0,-123.48 -61.68,-185.15 -185.16,-185.15 -183.48,0 -411.17,353.03 -555.46,449.65z" />
</svg>