<svg width="24" height="24" viewBox="0 0 24 24" fill="none" xmlns="http://www.w3.org/2000/svg">
<path fill-rule="evenodd" clip-rule="evenodd" d="M9 10.5H3C2.1715 10.5 1.5 9.8285 1.5 9V3C1.5 2.1715 2.1715 1.5 3 1.5H9C9.8285 1.5 10.5 2.1715 10.5 3V9C10.5 9.8285 9.8285 10.5 9 10.5Z"  stroke-linecap="round" stroke-linejoin="round"/>
<path d="M1.5 8.743L3.806 6.437C4.0015 6.2415 4.318 6.2415 4.513 6.437L5.216 7.14L7.5045 4.852C7.7 4.6565 8.0165 4.6565 8.2115 4.852L10.5 7.1405"  stroke-linecap="round" stroke-linejoin="round"/>
<path d="M4.25709 3.70342C4.33032 3.77665 4.33032 3.89537 4.25709 3.96859C4.18387 4.04181 4.06515 4.04181 3.99193 3.96859C3.91871 3.89537 3.91871 3.77665 3.99193 3.70342C4.06515 3.6302 4.18387 3.6302 4.25709 3.70342"  stroke-linecap="round" stroke-linejoin="round"/>
<path fill-rule="evenodd" clip-rule="evenodd" d="M9 22.5H3C2.1715 22.5 1.5 21.8285 1.5 21V15C1.5 14.1715 2.1715 13.5 3 13.5H9C9.8285 13.5 10.5 14.1715 10.5 15V21C10.5 21.8285 9.8285 22.5 9 22.5Z"  stroke-linecap="round" stroke-linejoin="round"/>
<path d="M1.5 20.743L3.806 18.437C4.0015 18.2415 4.318 18.2415 4.513 18.437L5.216 19.14L7.5045 16.852C7.7 16.6565 8.0165 16.6565 8.2115 16.852L10.5 19.1405"  stroke-linecap="round" stroke-linejoin="round"/>
<path d="M4.25709 15.7034C4.33032 15.7766 4.33032 15.8954 4.25709 15.9686C4.18387 16.0418 4.06515 16.0418 3.99193 15.9686C3.91871 15.8954 3.91871 15.7766 3.99193 15.7034C4.06515 15.6302 4.18387 15.6302 4.25709 15.7034"  stroke-linecap="round" stroke-linejoin="round"/>
<path fill-rule="evenodd" clip-rule="evenodd" d="M21 10.5H15C14.1715 10.5 13.5 9.8285 13.5 9V3C13.5 2.1715 14.1715 1.5 15 1.5H21C21.8285 1.5 22.5 2.1715 22.5 3V9C22.5 9.8285 21.8285 10.5 21 10.5Z"  stroke-linecap="round" stroke-linejoin="round"/>
<path d="M13.5 8.743L15.806 6.437C16.0015 6.2415 16.318 6.2415 16.513 6.437L17.216 7.14L19.5045 4.852C19.7 4.6565 20.0165 4.6565 20.2115 4.852L22.5 7.1405"  stroke-linecap="round" stroke-linejoin="round"/>
<path d="M16.2571 3.70342C16.3303 3.77665 16.3303 3.89537 16.2571 3.96859C16.1839 4.04181 16.0652 4.04181 15.9919 3.96859C15.9187 3.89537 15.9187 3.77665 15.9919 3.70342C16.0652 3.6302 16.1839 3.6302 16.2571 3.70342"  stroke-linecap="round" stroke-linejoin="round"/>
<path fill-rule="evenodd" clip-rule="evenodd" d="M21 22.5H15C14.1715 22.5 13.5 21.8285 13.5 21V15C13.5 14.1715 14.1715 13.5 15 13.5H21C21.8285 13.5 22.5 14.1715 22.5 15V21C22.5 21.8285 21.8285 22.5 21 22.5Z"  stroke-linecap="round" stroke-linejoin="round"/>
<path d="M13.5 20.743L15.806 18.437C16.0015 18.2415 16.318 18.2415 16.513 18.437L17.216 19.14L19.5045 16.852C19.7 16.6565 20.0165 16.6565 20.2115 16.852L22.5 19.1405"  stroke-linecap="round" stroke-linejoin="round"/>
<path d="M16.2571 15.7034C16.3303 15.7766 16.3303 15.8954 16.2571 15.9686C16.1839 16.0418 16.0652 16.0418 15.9919 15.9686C15.9187 15.8954 15.9187 15.7766 15.9919 15.7034C16.0652 15.6302 16.1839 15.6302 16.2571 15.7034"  stroke-linecap="round" stroke-linejoin="round"/>
</svg>
