<svg width="24" height="24" viewBox="0 0 24 24" fill="none" xmlns="http://www.w3.org/2000/svg">
<path d="M9.55567 15.0551L6.80564 17.8051" stroke-width="1.5" stroke-linecap="round" stroke-linejoin="round"/>
<path fill-rule="evenodd" clip-rule="evenodd" d="M13.6795 4.0543L13.3028 4.43106C12.9906 4.74319 12.794 5.15157 12.7445 5.59157L12.4764 8.00747L11.1014 9.38249L8.5026 9.01124C7.89621 8.92461 7.28571 9.12811 6.85258 9.56124L5.45693 10.9569L13.6534 19.1534L15.049 17.7577C15.4822 17.3246 15.6857 16.7141 15.5991 16.1077L15.2278 13.5089L16.6028 12.1339L19.0187 11.8658C19.456 11.8163 19.8657 11.6183 20.1779 11.3061L20.5546 10.9294C20.9341 10.5499 20.9341 9.93387 20.5546 9.55437L15.0545 4.0543C14.675 3.6748 14.059 3.6748 13.6795 4.0543Z" stroke-width="1.5" stroke-linecap="round" stroke-linejoin="round"/>
</svg>
