<svg width="24" height="24" viewBox="0 0 24 24" fill="none" xmlns="http://www.w3.org/2000/svg">
<path d="M6.126 13.8L3 17L5.5 18.5L7 21L10.899 16.905" stroke-width="1.5" stroke-linecap="round" stroke-linejoin="round"/>
<path d="M13.1006 16.905L16.9996 21L18.4996 18.5L20.9996 17L17.8736 13.8" stroke-width="1.5" stroke-linecap="round" stroke-linejoin="round"/>
<path d="M16.9497 5.05025C19.6834 7.78392 19.6834 12.2161 16.9497 14.9497C14.2161 17.6834 9.78392 17.6834 7.05025 14.9497C4.31658 12.2161 4.31658 7.78392 7.05025 5.05025C9.78392 2.31658 14.2161 2.31658 16.9497 5.05025" stroke-width="1.5" stroke-linecap="round" stroke-linejoin="round"/>
<path fill-rule="evenodd" clip-rule="evenodd" d="M11.9994 12.584L13.7964 13.528C14.1464 13.712 14.5554 13.415 14.4884 13.025L14.1454 11.024L15.5994 9.608C15.8824 9.332 15.7264 8.851 15.3354 8.794L13.3264 8.502L12.4284 6.681C12.2534 6.326 11.7484 6.326 11.5734 6.681L10.6754 8.502L8.6654 8.795C8.2744 8.852 8.1184 9.333 8.4014 9.609L9.8554 11.025L9.5124 13.026C9.4454 13.416 9.8544 13.713 10.2044 13.529L12.0014 12.585H11.9994V12.584Z" stroke-width="1.5" stroke-linecap="round" stroke-linejoin="round"/>
</svg>
