<?xml version="1.0" encoding="UTF-8"?>
<svg id="Camada_1" xmlns="http://www.w3.org/2000/svg" viewBox="0 0 16 16">
  <defs>
    <style>.cls-1{fill:#A6F600;}.cls-2{fill:#212121;}</style>
  </defs>
  <rect class="cls-1" x=".25" y=".25" width="15.5" height="15.5" rx=".7" ry=".7"/>
  <path class="cls-2" d="m4.6,3.66h-.66c-.47,0-.76-.22-.76-.59s.28-.6.76-.6h2.6v-1.03h-2.63c-1.08,0-1.83.67-1.83,1.63s.75,1.61,1.83,1.61h.65c.76,0,1.16.29,1.16.84,0,.36-.15.96-1.18.96h-2.44v1.03h2.5c1.65,0,2.23-1.02,2.23-1.98,0-.91-.58-1.88-2.22-1.88Z"/><path class="cls-2" d="m11.19,1.42c-1.77,0-3.15,1.33-3.15,3.02s1.38,3.05,3.15,3.05,3.15-1.34,3.15-3.05-1.38-3.02-3.15-3.02Zm0,5.05c-1.18,0-2.06-.87-2.06-2.03s.89-2,2.06-2,2.06.86,2.06,2-.89,2.03-2.06,2.03Z"/><path class="cls-2" d="m4.47,8.49c-.34,0-1.39.02-2.15.88-.65.73-.67,1.61-.65,1.96v3.15h1.17v-3.14c-.01-.13-.05-.81.47-1.33.42-.43.95-.49,1.16-.49.43,0,.83.16,1.15.51.46.49.45,1.1.43,1.27v3.19h1.17v-3.2c.02-.34,0-1.2-.62-1.91-.78-.89-1.79-.88-2.12-.87v-.03s0,.03,0,.03h0Z"/><polygon class="cls-2" points="4.47 8.46 4.47 8.46 4.47 8.46 4.47 8.46"/><polygon class="cls-2" points="4.47 8.46 4.47 8.46 4.47 8.46 4.47 8.46"/><path class="cls-2" d="m11.3,9.52c.79,0,1.46.41,1.76,1.06l.03.06h1.12l-.05-.14c-.39-1.22-1.52-2-2.87-2-1.76,0-3.13,1.33-3.13,3.02s1.38,3.06,3.13,3.06c1.34,0,2.5-.8,2.87-1.99l.04-.14h-1.12l-.03.06c-.3.66-.96,1.05-1.76,1.05-1.17,0-2.05-.88-2.05-2.04s.88-2,2.05-2Z"/>
</svg>