<svg width="24" height="24" viewBox="0 0 24 24" fill="none" xmlns="http://www.w3.org/2000/svg">
<path d="M9.55567 15.055L6.80564 17.805" stroke-width="1.5" stroke-linecap="round" stroke-linejoin="round"/>
<path fill-rule="evenodd" clip-rule="evenodd" d="M13.6795 4.05439L13.3028 4.43115C12.9906 4.74328 12.794 5.15166 12.7445 5.59166L12.4764 8.00757L11.1014 9.38258L8.5026 9.01133C7.89621 8.9247 7.28571 9.1282 6.85258 9.56133L5.45693 10.957L13.6534 19.1534L15.049 17.7578C15.4822 17.3247 15.6857 16.7142 15.5991 16.1078L15.2278 13.509L16.6028 12.134L19.0187 11.8659C19.456 11.8164 19.8657 11.6184 20.1779 11.3062L20.5546 10.9295C20.9341 10.55 20.9341 9.93396 20.5546 9.55446L15.0545 4.05439C14.675 3.67489 14.059 3.67489 13.6795 4.05439Z" stroke-width="1.5" stroke-linecap="round" stroke-linejoin="round"/>
<path d="M7.5 4.00014L20.5 17" stroke-width="1.5" stroke-linecap="round"/>
</svg>
