<svg width="24" height="24" viewBox="0 0 24 24" fill="none" xmlns="http://www.w3.org/2000/svg">
<path d="M5.50565 7.65881C9.09247 4.14701 14.9079 4.14701 18.4947 7.65881L18.9264 8.08146C19.1057 8.25705 19.1057 8.54174 18.9264 8.71733L17.4497 10.1631C17.36 10.2509 17.2146 10.2509 17.125 10.1631L16.5309 9.58152C14.0287 7.1316 9.97169 7.1316 7.46943 9.58152L6.83326 10.2044C6.74359 10.2922 6.59821 10.2922 6.50853 10.2044L5.03184 8.75858C4.8525 8.58299 4.8525 8.2983 5.03184 8.12271L5.50565 7.65881ZM21.5486 10.6489L22.8629 11.9357C23.0422 12.1112 23.0422 12.3959 22.8629 12.5715L16.9368 18.3737C16.7575 18.5493 16.4667 18.5493 16.2874 18.3737C16.2874 18.3737 16.2874 18.3737 16.2874 18.3737L12.0814 14.2557C12.0365 14.2118 11.9639 14.2118 11.919 14.2557C11.919 14.2557 11.919 14.2557 11.919 14.2557L7.71313 18.3737C7.5338 18.5493 7.24303 18.5493 7.06368 18.3737C7.06368 18.3737 7.06368 18.3737 7.06368 18.3737L1.13744 12.5715C0.958094 12.3959 0.958094 12.1112 1.13744 11.9356L2.4517 10.6488C2.63104 10.4732 2.92181 10.4732 3.10115 10.6488L7.30718 14.7669C7.35201 14.8108 7.42471 14.8108 7.46954 14.7669C7.46954 14.7669 7.46954 14.7669 7.46954 14.7669L11.6754 10.6488C11.8547 10.4732 12.1455 10.4732 12.3248 10.6488C12.3248 10.6488 12.3248 10.6488 12.3248 10.6488L16.5309 14.7669C16.5757 14.8108 16.6484 14.8108 16.6932 14.7669L20.8992 10.6489C21.0785 10.4733 21.3693 10.4733 21.5486 10.6489Z" fill="#3B99FC"/>
</svg>
